<mxfile host="app.diagrams.net" modified="2023-10-16T10:47:22.049Z" agent="Mozilla/5.0 (Windows NT 10.0; Win64; x64) AppleWebKit/537.36 (KHTML, like Gecko) Chrome/118.0.0.0 Safari/537.36" etag="Ec7yKAzN_wohEv4DUSYz" version="22.0.4" type="device">
  <diagram id="C5RBs43oDa-KdzZeNtuy" name="Page-1">
    <mxGraphModel dx="794" dy="456" grid="1" gridSize="10" guides="1" tooltips="1" connect="1" arrows="1" fold="1" page="1" pageScale="1" pageWidth="827" pageHeight="1169" math="0" shadow="0">
      <root>
        <mxCell id="WIyWlLk6GJQsqaUBKTNV-0" />
        <mxCell id="WIyWlLk6GJQsqaUBKTNV-1" parent="WIyWlLk6GJQsqaUBKTNV-0" />
        <mxCell id="EAZIWyAZ8jcEmbwy2l7Q-3" value="" style="endArrow=none;html=1;rounded=0;" parent="WIyWlLk6GJQsqaUBKTNV-1" source="EAZIWyAZ8jcEmbwy2l7Q-2" edge="1">
          <mxGeometry width="50" height="50" relative="1" as="geometry">
            <mxPoint x="360" y="350" as="sourcePoint" />
            <mxPoint x="410" y="300" as="targetPoint" />
          </mxGeometry>
        </mxCell>
        <mxCell id="EAZIWyAZ8jcEmbwy2l7Q-4" value="" style="endArrow=none;html=1;rounded=0;" parent="WIyWlLk6GJQsqaUBKTNV-1" target="EAZIWyAZ8jcEmbwy2l7Q-2" edge="1">
          <mxGeometry width="50" height="50" relative="1" as="geometry">
            <mxPoint x="370" y="360" as="sourcePoint" />
            <mxPoint x="410" y="300" as="targetPoint" />
          </mxGeometry>
        </mxCell>
        <mxCell id="EAZIWyAZ8jcEmbwy2l7Q-2" value="&lt;span style=&quot;font-size: 13px;&quot;&gt;&lt;b&gt;Main Menu&lt;/b&gt;&lt;br&gt;&lt;br&gt;1.Manage Employees&lt;br&gt;2.Travel Request&lt;br&gt;&lt;br&gt;select the options by entering the Sr.No(1 or 2)&lt;br&gt;&lt;b&gt;&lt;br&gt;Enter Choice:&lt;/b&gt;&lt;br&gt;&lt;br&gt;&lt;/span&gt;" style="whiteSpace=wrap;html=1;aspect=fixed;strokeColor=default;" parent="WIyWlLk6GJQsqaUBKTNV-1" vertex="1">
          <mxGeometry x="280" y="140" width="180" height="180" as="geometry" />
        </mxCell>
        <mxCell id="EAZIWyAZ8jcEmbwy2l7Q-6" value="" style="endArrow=none;html=1;rounded=0;" parent="WIyWlLk6GJQsqaUBKTNV-1" edge="1">
          <mxGeometry width="50" height="50" relative="1" as="geometry">
            <mxPoint x="190" y="360" as="sourcePoint" />
            <mxPoint x="730" y="360" as="targetPoint" />
          </mxGeometry>
        </mxCell>
        <mxCell id="Qi8HPNzengzMcqGq8Z2p-6" style="edgeStyle=orthogonalEdgeStyle;rounded=0;orthogonalLoop=1;jettySize=auto;html=1;exitX=0.5;exitY=1;exitDx=0;exitDy=0;" edge="1" parent="WIyWlLk6GJQsqaUBKTNV-1" source="EAZIWyAZ8jcEmbwy2l7Q-12">
          <mxGeometry relative="1" as="geometry">
            <mxPoint x="180" y="680" as="targetPoint" />
          </mxGeometry>
        </mxCell>
        <mxCell id="EAZIWyAZ8jcEmbwy2l7Q-12" value="&lt;b&gt;Manage Employee&lt;br&gt;&lt;/b&gt;&lt;br&gt;1.Add Employee&lt;br&gt;2.Edit Employee&lt;br&gt;3.Delete Employee&lt;br&gt;4.View Employee&lt;br&gt;5.Go Back" style="whiteSpace=wrap;html=1;aspect=fixed;" parent="WIyWlLk6GJQsqaUBKTNV-1" vertex="1">
          <mxGeometry x="100" y="440" width="160" height="160" as="geometry" />
        </mxCell>
        <mxCell id="Qi8HPNzengzMcqGq8Z2p-5" style="edgeStyle=orthogonalEdgeStyle;rounded=0;orthogonalLoop=1;jettySize=auto;html=1;exitX=0.5;exitY=1;exitDx=0;exitDy=0;" edge="1" parent="WIyWlLk6GJQsqaUBKTNV-1" source="EAZIWyAZ8jcEmbwy2l7Q-13">
          <mxGeometry relative="1" as="geometry">
            <mxPoint x="730" y="670" as="targetPoint" />
          </mxGeometry>
        </mxCell>
        <mxCell id="EAZIWyAZ8jcEmbwy2l7Q-13" value="&lt;b&gt;Travel Requests&lt;/b&gt;&lt;br&gt;&lt;br&gt;1.Raise Travel Request&lt;br&gt;2.View Travel Request&lt;br&gt;3.Delete Travel Request&lt;br&gt;4.Approve Travel Request&lt;br&gt;5.Confirm Booking&lt;br&gt;6.Go Back" style="whiteSpace=wrap;html=1;aspect=fixed;" parent="WIyWlLk6GJQsqaUBKTNV-1" vertex="1">
          <mxGeometry x="637" y="425" width="185" height="185" as="geometry" />
        </mxCell>
        <mxCell id="EAZIWyAZ8jcEmbwy2l7Q-17" value="&lt;font style=&quot;font-size: 8px;&quot;&gt;&lt;span style=&quot;&quot;&gt;1.Add employee Id&lt;br&gt;&lt;/span&gt;2.Add Employee name&lt;br&gt;3.Add employee address&lt;br&gt;4Add Employee contact&lt;br&gt;5.AddEmployee DOB&lt;br&gt;6.Add employee department&lt;br&gt;&lt;/font&gt;" style="whiteSpace=wrap;html=1;aspect=fixed;" parent="WIyWlLk6GJQsqaUBKTNV-1" vertex="1">
          <mxGeometry y="730" width="100" height="100" as="geometry" />
        </mxCell>
        <mxCell id="EAZIWyAZ8jcEmbwy2l7Q-18" value="" style="endArrow=classic;startArrow=classic;html=1;rounded=0;exitX=0.338;exitY=0.017;exitDx=0;exitDy=0;exitPerimeter=0;entryX=0.5;entryY=0;entryDx=0;entryDy=0;" parent="WIyWlLk6GJQsqaUBKTNV-1" source="EAZIWyAZ8jcEmbwy2l7Q-17" target="EAZIWyAZ8jcEmbwy2l7Q-19" edge="1">
          <mxGeometry width="50" height="50" relative="1" as="geometry">
            <mxPoint x="360" y="700" as="sourcePoint" />
            <mxPoint x="410" y="680" as="targetPoint" />
            <Array as="points">
              <mxPoint x="34" y="680" />
              <mxPoint x="140" y="680" />
            </Array>
          </mxGeometry>
        </mxCell>
        <mxCell id="EAZIWyAZ8jcEmbwy2l7Q-19" value="&lt;font size=&quot;1&quot;&gt;1.Employee Id&lt;br&gt;2.Edit Employee name&amp;nbsp;&lt;br&gt;3.Edit Employee address&lt;br&gt;4.Edit Employee contact&lt;br&gt;5.Edit employee DOB&lt;br&gt;6.Edit employee&lt;br&gt;department&lt;br&gt;&lt;/font&gt;" style="whiteSpace=wrap;html=1;aspect=fixed;" parent="WIyWlLk6GJQsqaUBKTNV-1" vertex="1">
          <mxGeometry x="80" y="840" width="120" height="120" as="geometry" />
        </mxCell>
        <mxCell id="EAZIWyAZ8jcEmbwy2l7Q-20" value="Delete Employee" style="whiteSpace=wrap;html=1;aspect=fixed;" parent="WIyWlLk6GJQsqaUBKTNV-1" vertex="1">
          <mxGeometry x="180" y="730" width="90" height="90" as="geometry" />
        </mxCell>
        <mxCell id="EAZIWyAZ8jcEmbwy2l7Q-21" value="" style="endArrow=none;html=1;rounded=0;" parent="WIyWlLk6GJQsqaUBKTNV-1" edge="1">
          <mxGeometry width="50" height="50" relative="1" as="geometry">
            <mxPoint x="144" y="680" as="sourcePoint" />
            <mxPoint x="400" y="680" as="targetPoint" />
            <Array as="points" />
          </mxGeometry>
        </mxCell>
        <mxCell id="EAZIWyAZ8jcEmbwy2l7Q-22" value="" style="endArrow=classic;html=1;rounded=0;entryX=0.444;entryY=0;entryDx=0;entryDy=0;entryPerimeter=0;" parent="WIyWlLk6GJQsqaUBKTNV-1" target="EAZIWyAZ8jcEmbwy2l7Q-20" edge="1">
          <mxGeometry width="50" height="50" relative="1" as="geometry">
            <mxPoint x="220" y="680" as="sourcePoint" />
            <mxPoint x="200" y="650" as="targetPoint" />
          </mxGeometry>
        </mxCell>
        <mxCell id="EAZIWyAZ8jcEmbwy2l7Q-23" value="View Employees" style="whiteSpace=wrap;html=1;aspect=fixed;" parent="WIyWlLk6GJQsqaUBKTNV-1" vertex="1">
          <mxGeometry x="260" y="840" width="100" height="100" as="geometry" />
        </mxCell>
        <mxCell id="EAZIWyAZ8jcEmbwy2l7Q-24" value="Go back" style="whiteSpace=wrap;html=1;aspect=fixed;" parent="WIyWlLk6GJQsqaUBKTNV-1" vertex="1">
          <mxGeometry x="360" y="730" width="80" height="80" as="geometry" />
        </mxCell>
        <mxCell id="EAZIWyAZ8jcEmbwy2l7Q-25" value="" style="endArrow=none;html=1;rounded=0;entryX=0.5;entryY=0;entryDx=0;entryDy=0;entryPerimeter=0;exitX=0.5;exitY=0;exitDx=0;exitDy=0;" parent="WIyWlLk6GJQsqaUBKTNV-1" source="EAZIWyAZ8jcEmbwy2l7Q-23" target="EAZIWyAZ8jcEmbwy2l7Q-24" edge="1">
          <mxGeometry width="50" height="50" relative="1" as="geometry">
            <mxPoint x="310" y="720" as="sourcePoint" />
            <mxPoint x="393" y="725" as="targetPoint" />
            <Array as="points">
              <mxPoint x="310" y="680" />
              <mxPoint x="400" y="680" />
            </Array>
          </mxGeometry>
        </mxCell>
        <mxCell id="EAZIWyAZ8jcEmbwy2l7Q-27" value="1. Request Id&lt;br&gt;2. Employee Id&lt;br&gt;3.Location From&amp;nbsp;&lt;br&gt;4.Location to&lt;br&gt;5.Raise a ticket" style="whiteSpace=wrap;html=1;aspect=fixed;" parent="WIyWlLk6GJQsqaUBKTNV-1" vertex="1">
          <mxGeometry x="470" y="720" width="90" height="90" as="geometry" />
        </mxCell>
        <mxCell id="EAZIWyAZ8jcEmbwy2l7Q-28" value="View all employees request" style="whiteSpace=wrap;html=1;aspect=fixed;" parent="WIyWlLk6GJQsqaUBKTNV-1" vertex="1">
          <mxGeometry x="560" y="840" width="80" height="80" as="geometry" />
        </mxCell>
        <mxCell id="EAZIWyAZ8jcEmbwy2l7Q-29" value="Request ID" style="whiteSpace=wrap;html=1;aspect=fixed;" parent="WIyWlLk6GJQsqaUBKTNV-1" vertex="1">
          <mxGeometry x="650" y="720" width="80" height="80" as="geometry" />
        </mxCell>
        <mxCell id="EAZIWyAZ8jcEmbwy2l7Q-30" value="View open request&lt;br&gt;Approve request" style="whiteSpace=wrap;html=1;aspect=fixed;" parent="WIyWlLk6GJQsqaUBKTNV-1" vertex="1">
          <mxGeometry x="747" y="720" width="80" height="80" as="geometry" />
        </mxCell>
        <mxCell id="EAZIWyAZ8jcEmbwy2l7Q-31" value="Go back" style="whiteSpace=wrap;html=1;aspect=fixed;" parent="WIyWlLk6GJQsqaUBKTNV-1" vertex="1">
          <mxGeometry x="940" y="720" width="80" height="80" as="geometry" />
        </mxCell>
        <mxCell id="EAZIWyAZ8jcEmbwy2l7Q-32" value="View confirmed request" style="whiteSpace=wrap;html=1;aspect=fixed;" parent="WIyWlLk6GJQsqaUBKTNV-1" vertex="1">
          <mxGeometry x="840" y="720" width="80" height="80" as="geometry" />
        </mxCell>
        <mxCell id="EAZIWyAZ8jcEmbwy2l7Q-40" value="" style="endArrow=none;html=1;rounded=0;" parent="WIyWlLk6GJQsqaUBKTNV-1" edge="1">
          <mxGeometry width="50" height="50" relative="1" as="geometry">
            <mxPoint x="530" y="670" as="sourcePoint" />
            <mxPoint x="980" y="670" as="targetPoint" />
          </mxGeometry>
        </mxCell>
        <mxCell id="EAZIWyAZ8jcEmbwy2l7Q-45" value="" style="endArrow=classic;html=1;rounded=0;" parent="WIyWlLk6GJQsqaUBKTNV-1" edge="1">
          <mxGeometry width="50" height="50" relative="1" as="geometry">
            <mxPoint x="530" y="670" as="sourcePoint" />
            <mxPoint x="530" y="720" as="targetPoint" />
          </mxGeometry>
        </mxCell>
        <mxCell id="EAZIWyAZ8jcEmbwy2l7Q-46" value="" style="endArrow=classic;html=1;rounded=0;entryX=0.5;entryY=0;entryDx=0;entryDy=0;" parent="WIyWlLk6GJQsqaUBKTNV-1" target="EAZIWyAZ8jcEmbwy2l7Q-28" edge="1">
          <mxGeometry width="50" height="50" relative="1" as="geometry">
            <mxPoint x="600" y="670" as="sourcePoint" />
            <mxPoint x="530" y="430" as="targetPoint" />
          </mxGeometry>
        </mxCell>
        <mxCell id="EAZIWyAZ8jcEmbwy2l7Q-47" value="" style="endArrow=classic;html=1;rounded=0;entryX=0.5;entryY=0;entryDx=0;entryDy=0;" parent="WIyWlLk6GJQsqaUBKTNV-1" target="EAZIWyAZ8jcEmbwy2l7Q-29" edge="1">
          <mxGeometry width="50" height="50" relative="1" as="geometry">
            <mxPoint x="690" y="670" as="sourcePoint" />
            <mxPoint x="720" y="600" as="targetPoint" />
          </mxGeometry>
        </mxCell>
        <mxCell id="EAZIWyAZ8jcEmbwy2l7Q-48" value="" style="endArrow=classic;html=1;rounded=0;entryX=0.5;entryY=0;entryDx=0;entryDy=0;" parent="WIyWlLk6GJQsqaUBKTNV-1" target="EAZIWyAZ8jcEmbwy2l7Q-30" edge="1">
          <mxGeometry width="50" height="50" relative="1" as="geometry">
            <mxPoint x="787" y="670" as="sourcePoint" />
            <mxPoint x="720" y="600" as="targetPoint" />
          </mxGeometry>
        </mxCell>
        <mxCell id="EAZIWyAZ8jcEmbwy2l7Q-49" value="" style="endArrow=classic;html=1;rounded=0;entryX=0.5;entryY=0;entryDx=0;entryDy=0;" parent="WIyWlLk6GJQsqaUBKTNV-1" target="EAZIWyAZ8jcEmbwy2l7Q-32" edge="1">
          <mxGeometry width="50" height="50" relative="1" as="geometry">
            <mxPoint x="880" y="670" as="sourcePoint" />
            <mxPoint x="720" y="600" as="targetPoint" />
          </mxGeometry>
        </mxCell>
        <mxCell id="EAZIWyAZ8jcEmbwy2l7Q-50" value="" style="endArrow=classic;html=1;rounded=0;" parent="WIyWlLk6GJQsqaUBKTNV-1" target="EAZIWyAZ8jcEmbwy2l7Q-31" edge="1">
          <mxGeometry width="50" height="50" relative="1" as="geometry">
            <mxPoint x="980" y="670" as="sourcePoint" />
            <mxPoint x="720" y="600" as="targetPoint" />
          </mxGeometry>
        </mxCell>
        <mxCell id="EAZIWyAZ8jcEmbwy2l7Q-51" value="start" style="ellipse;whiteSpace=wrap;html=1;" parent="WIyWlLk6GJQsqaUBKTNV-1" vertex="1">
          <mxGeometry x="2110" y="170" width="120" height="80" as="geometry" />
        </mxCell>
        <mxCell id="EAZIWyAZ8jcEmbwy2l7Q-52" value="Add Employee" style="shape=parallelogram;perimeter=parallelogramPerimeter;whiteSpace=wrap;html=1;fixedSize=1;" parent="WIyWlLk6GJQsqaUBKTNV-1" vertex="1">
          <mxGeometry x="2100" y="340" width="120" height="70" as="geometry" />
        </mxCell>
        <mxCell id="EAZIWyAZ8jcEmbwy2l7Q-53" value="Raise Travel Request" style="rounded=0;whiteSpace=wrap;html=1;" parent="WIyWlLk6GJQsqaUBKTNV-1" vertex="1">
          <mxGeometry x="2100" y="510" width="120" height="60" as="geometry" />
        </mxCell>
        <mxCell id="EAZIWyAZ8jcEmbwy2l7Q-62" value="" style="endArrow=classic;html=1;rounded=0;exitX=0.459;exitY=1.059;exitDx=0;exitDy=0;exitPerimeter=0;entryX=0.546;entryY=0.01;entryDx=0;entryDy=0;entryPerimeter=0;" parent="WIyWlLk6GJQsqaUBKTNV-1" source="EAZIWyAZ8jcEmbwy2l7Q-51" target="EAZIWyAZ8jcEmbwy2l7Q-52" edge="1">
          <mxGeometry width="50" height="50" relative="1" as="geometry">
            <mxPoint x="2130" y="320" as="sourcePoint" />
            <mxPoint x="2165" y="330" as="targetPoint" />
          </mxGeometry>
        </mxCell>
        <mxCell id="EAZIWyAZ8jcEmbwy2l7Q-63" value="" style="endArrow=classic;html=1;rounded=0;entryX=0.5;entryY=0;entryDx=0;entryDy=0;exitX=0.5;exitY=1;exitDx=0;exitDy=0;" parent="WIyWlLk6GJQsqaUBKTNV-1" source="EAZIWyAZ8jcEmbwy2l7Q-52" target="EAZIWyAZ8jcEmbwy2l7Q-53" edge="1">
          <mxGeometry width="50" height="50" relative="1" as="geometry">
            <mxPoint x="2130" y="490" as="sourcePoint" />
            <mxPoint x="2180" y="440" as="targetPoint" />
          </mxGeometry>
        </mxCell>
        <mxCell id="EAZIWyAZ8jcEmbwy2l7Q-64" value="" style="endArrow=classic;html=1;rounded=0;entryX=0.5;entryY=0;entryDx=0;entryDy=0;exitX=0.5;exitY=1;exitDx=0;exitDy=0;" parent="WIyWlLk6GJQsqaUBKTNV-1" source="EAZIWyAZ8jcEmbwy2l7Q-53" edge="1">
          <mxGeometry width="50" height="50" relative="1" as="geometry">
            <mxPoint x="2130" y="670" as="sourcePoint" />
            <mxPoint x="2160" y="660" as="targetPoint" />
          </mxGeometry>
        </mxCell>
        <mxCell id="EAZIWyAZ8jcEmbwy2l7Q-74" value="Travel Request Status=Open" style="rounded=0;whiteSpace=wrap;html=1;" parent="WIyWlLk6GJQsqaUBKTNV-1" vertex="1">
          <mxGeometry x="2110" y="660" width="120" height="60" as="geometry" />
        </mxCell>
        <mxCell id="EAZIWyAZ8jcEmbwy2l7Q-75" value="Approved" style="rhombus;whiteSpace=wrap;html=1;" parent="WIyWlLk6GJQsqaUBKTNV-1" vertex="1">
          <mxGeometry x="2120" y="770" width="80" height="80" as="geometry" />
        </mxCell>
        <mxCell id="EAZIWyAZ8jcEmbwy2l7Q-76" value="Approved Status = Approved" style="rounded=0;whiteSpace=wrap;html=1;" parent="WIyWlLk6GJQsqaUBKTNV-1" vertex="1">
          <mxGeometry x="2110" y="900" width="120" height="60" as="geometry" />
        </mxCell>
        <mxCell id="EAZIWyAZ8jcEmbwy2l7Q-77" value="Booking Available" style="rhombus;whiteSpace=wrap;html=1;" parent="WIyWlLk6GJQsqaUBKTNV-1" vertex="1">
          <mxGeometry x="2125" y="1040" width="70" height="80" as="geometry" />
        </mxCell>
        <mxCell id="EAZIWyAZ8jcEmbwy2l7Q-78" value="" style="endArrow=classic;html=1;rounded=0;entryX=0.5;entryY=0;entryDx=0;entryDy=0;exitX=0.419;exitY=1.059;exitDx=0;exitDy=0;exitPerimeter=0;" parent="WIyWlLk6GJQsqaUBKTNV-1" source="EAZIWyAZ8jcEmbwy2l7Q-74" target="EAZIWyAZ8jcEmbwy2l7Q-75" edge="1">
          <mxGeometry width="50" height="50" relative="1" as="geometry">
            <mxPoint x="2070" y="800" as="sourcePoint" />
            <mxPoint x="2120" y="750" as="targetPoint" />
          </mxGeometry>
        </mxCell>
        <mxCell id="EAZIWyAZ8jcEmbwy2l7Q-79" value="" style="endArrow=classic;html=1;rounded=0;exitX=0.5;exitY=1;exitDx=0;exitDy=0;entryX=0.416;entryY=-0.059;entryDx=0;entryDy=0;entryPerimeter=0;" parent="WIyWlLk6GJQsqaUBKTNV-1" source="EAZIWyAZ8jcEmbwy2l7Q-75" target="EAZIWyAZ8jcEmbwy2l7Q-76" edge="1">
          <mxGeometry width="50" height="50" relative="1" as="geometry">
            <mxPoint x="2070" y="900" as="sourcePoint" />
            <mxPoint x="2120" y="850" as="targetPoint" />
          </mxGeometry>
        </mxCell>
        <mxCell id="EAZIWyAZ8jcEmbwy2l7Q-80" value="" style="endArrow=classic;html=1;rounded=0;entryX=0.5;entryY=0;entryDx=0;entryDy=0;exitX=0.416;exitY=1.089;exitDx=0;exitDy=0;exitPerimeter=0;" parent="WIyWlLk6GJQsqaUBKTNV-1" source="EAZIWyAZ8jcEmbwy2l7Q-76" target="EAZIWyAZ8jcEmbwy2l7Q-77" edge="1">
          <mxGeometry width="50" height="50" relative="1" as="geometry">
            <mxPoint x="2160" y="970" as="sourcePoint" />
            <mxPoint x="2120" y="1040" as="targetPoint" />
          </mxGeometry>
        </mxCell>
        <mxCell id="EAZIWyAZ8jcEmbwy2l7Q-82" value="Update Booking Status =No&amp;nbsp;&lt;br&gt;Travel Request Status=close" style="rounded=0;whiteSpace=wrap;html=1;" parent="WIyWlLk6GJQsqaUBKTNV-1" vertex="1">
          <mxGeometry x="2270" y="1050" width="120" height="60" as="geometry" />
        </mxCell>
        <mxCell id="EAZIWyAZ8jcEmbwy2l7Q-83" value="" style="endArrow=classic;html=1;rounded=0;exitX=1;exitY=0.5;exitDx=0;exitDy=0;entryX=0;entryY=0.5;entryDx=0;entryDy=0;" parent="WIyWlLk6GJQsqaUBKTNV-1" source="EAZIWyAZ8jcEmbwy2l7Q-77" target="EAZIWyAZ8jcEmbwy2l7Q-82" edge="1">
          <mxGeometry width="50" height="50" relative="1" as="geometry">
            <mxPoint x="2170" y="1060" as="sourcePoint" />
            <mxPoint x="2220" y="1010" as="targetPoint" />
          </mxGeometry>
        </mxCell>
        <mxCell id="EAZIWyAZ8jcEmbwy2l7Q-84" value="Update approved status = approved&amp;nbsp;&lt;br&gt;Travel request status=close" style="rounded=0;whiteSpace=wrap;html=1;" parent="WIyWlLk6GJQsqaUBKTNV-1" vertex="1">
          <mxGeometry x="2290" y="780" width="120" height="60" as="geometry" />
        </mxCell>
        <mxCell id="EAZIWyAZ8jcEmbwy2l7Q-85" value="" style="endArrow=classic;html=1;rounded=0;entryX=0;entryY=0.5;entryDx=0;entryDy=0;exitX=1;exitY=0.5;exitDx=0;exitDy=0;" parent="WIyWlLk6GJQsqaUBKTNV-1" source="EAZIWyAZ8jcEmbwy2l7Q-75" target="EAZIWyAZ8jcEmbwy2l7Q-84" edge="1">
          <mxGeometry width="50" height="50" relative="1" as="geometry">
            <mxPoint x="2170" y="930" as="sourcePoint" />
            <mxPoint x="2220" y="880" as="targetPoint" />
          </mxGeometry>
        </mxCell>
        <mxCell id="EAZIWyAZ8jcEmbwy2l7Q-86" value="Update travel request status = closed&lt;br&gt;Booking Status = Yes" style="rounded=0;whiteSpace=wrap;html=1;" parent="WIyWlLk6GJQsqaUBKTNV-1" vertex="1">
          <mxGeometry x="2100" y="1160" width="120" height="60" as="geometry" />
        </mxCell>
        <mxCell id="EAZIWyAZ8jcEmbwy2l7Q-87" value="End" style="ellipse;whiteSpace=wrap;html=1;" parent="WIyWlLk6GJQsqaUBKTNV-1" vertex="1">
          <mxGeometry x="2100" y="1280" width="120" height="80" as="geometry" />
        </mxCell>
        <mxCell id="EAZIWyAZ8jcEmbwy2l7Q-88" value="" style="endArrow=classic;html=1;rounded=0;exitX=0.5;exitY=1;exitDx=0;exitDy=0;entryX=0.5;entryY=0;entryDx=0;entryDy=0;" parent="WIyWlLk6GJQsqaUBKTNV-1" source="EAZIWyAZ8jcEmbwy2l7Q-77" target="EAZIWyAZ8jcEmbwy2l7Q-86" edge="1">
          <mxGeometry width="50" height="50" relative="1" as="geometry">
            <mxPoint x="2150" y="1250" as="sourcePoint" />
            <mxPoint x="2200" y="1200" as="targetPoint" />
          </mxGeometry>
        </mxCell>
        <mxCell id="EAZIWyAZ8jcEmbwy2l7Q-89" value="" style="endArrow=classic;html=1;rounded=0;entryX=0.5;entryY=0;entryDx=0;entryDy=0;exitX=0.5;exitY=1;exitDx=0;exitDy=0;" parent="WIyWlLk6GJQsqaUBKTNV-1" source="EAZIWyAZ8jcEmbwy2l7Q-86" target="EAZIWyAZ8jcEmbwy2l7Q-87" edge="1">
          <mxGeometry width="50" height="50" relative="1" as="geometry">
            <mxPoint x="2150" y="1250" as="sourcePoint" />
            <mxPoint x="2200" y="1200" as="targetPoint" />
          </mxGeometry>
        </mxCell>
        <mxCell id="Qi8HPNzengzMcqGq8Z2p-1" value="" style="endArrow=classic;html=1;rounded=0;" edge="1" parent="WIyWlLk6GJQsqaUBKTNV-1" target="EAZIWyAZ8jcEmbwy2l7Q-13">
          <mxGeometry width="50" height="50" relative="1" as="geometry">
            <mxPoint x="730" y="360" as="sourcePoint" />
            <mxPoint x="450" y="480" as="targetPoint" />
          </mxGeometry>
        </mxCell>
        <mxCell id="Qi8HPNzengzMcqGq8Z2p-2" value="" style="endArrow=classic;html=1;rounded=0;" edge="1" parent="WIyWlLk6GJQsqaUBKTNV-1">
          <mxGeometry width="50" height="50" relative="1" as="geometry">
            <mxPoint x="190" y="360" as="sourcePoint" />
            <mxPoint x="190" y="440" as="targetPoint" />
          </mxGeometry>
        </mxCell>
      </root>
    </mxGraphModel>
  </diagram>
</mxfile>
